<mxfile host="app.diagrams.net" agent="Mozilla/5.0 (Windows NT 10.0; Win64; x64) AppleWebKit/537.36 (KHTML, like Gecko) Chrome/131.0.0.0 Safari/537.36" version="25.0.1">
  <diagram name="第 1 页" id="2a5d5us7GP4HqnoKzvdi">
    <mxGraphModel dx="2074" dy="1106" grid="1" gridSize="10" guides="1" tooltips="1" connect="1" arrows="1" fold="1" page="1" pageScale="1" pageWidth="827" pageHeight="1169" math="0" shadow="0">
      <root>
        <mxCell id="0" />
        <mxCell id="1" parent="0" />
        <mxCell id="bKBYJXquQkLoO3W5mpU2-1" value="" style="sketch=0;pointerEvents=1;shadow=0;dashed=0;html=1;strokeColor=none;fillColor=#505050;labelPosition=center;verticalLabelPosition=bottom;verticalAlign=top;outlineConnect=0;align=center;shape=mxgraph.office.devices.cell_phone_iphone_proportional;rotation=-90;" vertex="1" parent="1">
          <mxGeometry x="235" y="-5" width="352.5" height="712.5" as="geometry" />
        </mxCell>
        <mxCell id="bKBYJXquQkLoO3W5mpU2-2" value="" style="rounded=0;whiteSpace=wrap;html=1;fillColor=#f8cecc;strokeColor=#b85450;" vertex="1" parent="1">
          <mxGeometry x="165" y="220" width="40" height="30" as="geometry" />
        </mxCell>
        <mxCell id="bKBYJXquQkLoO3W5mpU2-3" value="" style="rounded=0;whiteSpace=wrap;html=1;fillColor=#f8cecc;strokeColor=#b85450;" vertex="1" parent="1">
          <mxGeometry x="165" y="451" width="40" height="30" as="geometry" />
        </mxCell>
        <mxCell id="bKBYJXquQkLoO3W5mpU2-4" value="" style="rounded=0;whiteSpace=wrap;html=1;fillColor=#f8cecc;strokeColor=#b85450;" vertex="1" parent="1">
          <mxGeometry x="600" y="451" width="40" height="30" as="geometry" />
        </mxCell>
        <mxCell id="bKBYJXquQkLoO3W5mpU2-5" value="" style="rounded=0;whiteSpace=wrap;html=1;fillColor=#f8cecc;strokeColor=#b85450;" vertex="1" parent="1">
          <mxGeometry x="600" y="220" width="40" height="30" as="geometry" />
        </mxCell>
        <mxCell id="bKBYJXquQkLoO3W5mpU2-6" value="" style="rounded=0;whiteSpace=wrap;html=1;fillColor=#f8cecc;strokeColor=#b85450;" vertex="1" parent="1">
          <mxGeometry x="340" y="470" width="120" height="11" as="geometry" />
        </mxCell>
        <mxCell id="bKBYJXquQkLoO3W5mpU2-7" value="文本文字&lt;br&gt;（距离底部20px）" style="text;html=1;align=center;verticalAlign=middle;whiteSpace=wrap;rounded=0;" vertex="1" parent="1">
          <mxGeometry x="345" y="440" width="110" height="30" as="geometry" />
        </mxCell>
      </root>
    </mxGraphModel>
  </diagram>
</mxfile>
